<mxfile host="Electron" agent="Mozilla/5.0 (Windows NT 10.0; Win64; x64) AppleWebKit/537.36 (KHTML, like Gecko) draw.io/28.0.4 Chrome/138.0.7204.97 Electron/37.2.1 Safari/537.36" version="28.0.4">
  <diagram name="Seite-1" id="GYIPbAmZOylh9-V6kjQV">
    <mxGraphModel dx="925" dy="661" grid="1" gridSize="10" guides="1" tooltips="1" connect="1" arrows="1" fold="1" page="1" pageScale="1" pageWidth="827" pageHeight="1169" math="0" shadow="0">
      <root>
        <mxCell id="0" />
        <mxCell id="1" parent="0" />
        <mxCell id="gaYBmX7o_NXPl3pp05XP-5" value="&amp;lt;&amp;lt;Interface&amp;gt;&amp;gt;&lt;div&gt;Payment&lt;/div&gt;" style="swimlane;fontStyle=0;childLayout=stackLayout;horizontal=1;startSize=26;fillColor=none;horizontalStack=0;resizeParent=1;resizeParentMax=0;resizeLast=0;collapsible=1;marginBottom=0;whiteSpace=wrap;html=1;" vertex="1" parent="1">
          <mxGeometry x="540" y="462" width="196" height="78" as="geometry" />
        </mxCell>
        <mxCell id="gaYBmX7o_NXPl3pp05XP-6" value="+ plusFee():void" style="text;strokeColor=none;fillColor=none;align=left;verticalAlign=top;spacingLeft=4;spacingRight=4;overflow=hidden;rotatable=0;points=[[0,0.5],[1,0.5]];portConstraint=eastwest;whiteSpace=wrap;html=1;" vertex="1" parent="gaYBmX7o_NXPl3pp05XP-5">
          <mxGeometry y="26" width="196" height="26" as="geometry" />
        </mxCell>
        <mxCell id="gaYBmX7o_NXPl3pp05XP-7" value="+ furtherServiceNavigation():void" style="text;strokeColor=none;fillColor=none;align=left;verticalAlign=top;spacingLeft=4;spacingRight=4;overflow=hidden;rotatable=0;points=[[0,0.5],[1,0.5]];portConstraint=eastwest;whiteSpace=wrap;html=1;" vertex="1" parent="gaYBmX7o_NXPl3pp05XP-5">
          <mxGeometry y="52" width="196" height="26" as="geometry" />
        </mxCell>
        <mxCell id="gaYBmX7o_NXPl3pp05XP-9" value="&amp;lt;&amp;lt;Interface&amp;gt;&amp;gt;&lt;div&gt;Coffee&lt;/div&gt;" style="swimlane;fontStyle=0;childLayout=stackLayout;horizontal=1;startSize=26;fillColor=none;horizontalStack=0;resizeParent=1;resizeParentMax=0;resizeLast=0;collapsible=1;marginBottom=0;whiteSpace=wrap;html=1;" vertex="1" parent="1">
          <mxGeometry x="573" y="158" width="140" height="78" as="geometry" />
        </mxCell>
        <mxCell id="gaYBmX7o_NXPl3pp05XP-11" value="+ displayInfo():void" style="text;strokeColor=none;fillColor=none;align=left;verticalAlign=top;spacingLeft=4;spacingRight=4;overflow=hidden;rotatable=0;points=[[0,0.5],[1,0.5]];portConstraint=eastwest;whiteSpace=wrap;html=1;" vertex="1" parent="gaYBmX7o_NXPl3pp05XP-9">
          <mxGeometry y="26" width="140" height="26" as="geometry" />
        </mxCell>
        <mxCell id="gaYBmX7o_NXPl3pp05XP-10" value="+ calcPrice():int" style="text;strokeColor=none;fillColor=none;align=left;verticalAlign=top;spacingLeft=4;spacingRight=4;overflow=hidden;rotatable=0;points=[[0,0.5],[1,0.5]];portConstraint=eastwest;whiteSpace=wrap;html=1;" vertex="1" parent="gaYBmX7o_NXPl3pp05XP-9">
          <mxGeometry y="52" width="140" height="26" as="geometry" />
        </mxCell>
        <mxCell id="gaYBmX7o_NXPl3pp05XP-13" value="Café misto" style="swimlane;fontStyle=1;align=center;verticalAlign=top;childLayout=stackLayout;horizontal=1;startSize=26;horizontalStack=0;resizeParent=1;resizeParentMax=0;resizeLast=0;collapsible=1;marginBottom=0;whiteSpace=wrap;html=1;" vertex="1" parent="1">
          <mxGeometry x="353" y="38" width="160" height="34" as="geometry" />
        </mxCell>
        <mxCell id="gaYBmX7o_NXPl3pp05XP-15" value="-quantity:int&#xa;-price:double&#xa;-name:String" style="line;strokeWidth=1;fillColor=none;align=left;verticalAlign=middle;spacingTop=-1;spacingLeft=3;spacingRight=3;rotatable=0;labelPosition=right;points=[];portConstraint=eastwest;strokeColor=inherit;" vertex="1" parent="gaYBmX7o_NXPl3pp05XP-13">
          <mxGeometry y="26" width="160" height="8" as="geometry" />
        </mxCell>
        <mxCell id="gaYBmX7o_NXPl3pp05XP-17" value="Café Latte" style="swimlane;fontStyle=1;align=center;verticalAlign=top;childLayout=stackLayout;horizontal=1;startSize=26;horizontalStack=0;resizeParent=1;resizeParentMax=0;resizeLast=0;collapsible=1;marginBottom=0;whiteSpace=wrap;html=1;" vertex="1" parent="1">
          <mxGeometry x="355" y="268" width="160" height="34" as="geometry" />
        </mxCell>
        <mxCell id="gaYBmX7o_NXPl3pp05XP-19" value="" style="line;strokeWidth=1;fillColor=none;align=left;verticalAlign=middle;spacingTop=-1;spacingLeft=3;spacingRight=3;rotatable=0;labelPosition=right;points=[];portConstraint=eastwest;strokeColor=inherit;" vertex="1" parent="gaYBmX7o_NXPl3pp05XP-17">
          <mxGeometry y="26" width="160" height="8" as="geometry" />
        </mxCell>
        <mxCell id="gaYBmX7o_NXPl3pp05XP-21" value="Decaf" style="swimlane;fontStyle=1;align=center;verticalAlign=top;childLayout=stackLayout;horizontal=1;startSize=26;horizontalStack=0;resizeParent=1;resizeParentMax=0;resizeLast=0;collapsible=1;marginBottom=0;whiteSpace=wrap;html=1;" vertex="1" parent="1">
          <mxGeometry x="353" y="158" width="160" height="34" as="geometry" />
        </mxCell>
        <mxCell id="gaYBmX7o_NXPl3pp05XP-23" value="" style="line;strokeWidth=1;fillColor=none;align=left;verticalAlign=middle;spacingTop=-1;spacingLeft=3;spacingRight=3;rotatable=0;labelPosition=right;points=[];portConstraint=eastwest;strokeColor=inherit;" vertex="1" parent="gaYBmX7o_NXPl3pp05XP-21">
          <mxGeometry y="26" width="160" height="8" as="geometry" />
        </mxCell>
        <mxCell id="gaYBmX7o_NXPl3pp05XP-25" value="Debit Card" style="swimlane;fontStyle=1;align=center;verticalAlign=top;childLayout=stackLayout;horizontal=1;startSize=26;horizontalStack=0;resizeParent=1;resizeParentMax=0;resizeLast=0;collapsible=1;marginBottom=0;whiteSpace=wrap;html=1;" vertex="1" parent="1">
          <mxGeometry x="322" y="370" width="160" height="78" as="geometry" />
        </mxCell>
        <mxCell id="gaYBmX7o_NXPl3pp05XP-26" value="-isPlusfee:boolean&lt;div&gt;-paymentType:String&lt;br&gt;&lt;div&gt;&lt;br&gt;&lt;/div&gt;&lt;/div&gt;" style="text;strokeColor=none;fillColor=none;align=left;verticalAlign=top;spacingLeft=4;spacingRight=4;overflow=hidden;rotatable=0;points=[[0,0.5],[1,0.5]];portConstraint=eastwest;whiteSpace=wrap;html=1;" vertex="1" parent="gaYBmX7o_NXPl3pp05XP-25">
          <mxGeometry y="26" width="160" height="44" as="geometry" />
        </mxCell>
        <mxCell id="gaYBmX7o_NXPl3pp05XP-27" value="" style="line;strokeWidth=1;fillColor=none;align=left;verticalAlign=middle;spacingTop=-1;spacingLeft=3;spacingRight=3;rotatable=0;labelPosition=right;points=[];portConstraint=eastwest;strokeColor=inherit;" vertex="1" parent="gaYBmX7o_NXPl3pp05XP-25">
          <mxGeometry y="70" width="160" height="8" as="geometry" />
        </mxCell>
        <mxCell id="gaYBmX7o_NXPl3pp05XP-29" value="Postfinance" style="swimlane;fontStyle=1;align=center;verticalAlign=top;childLayout=stackLayout;horizontal=1;startSize=26;horizontalStack=0;resizeParent=1;resizeParentMax=0;resizeLast=0;collapsible=1;marginBottom=0;whiteSpace=wrap;html=1;" vertex="1" parent="1">
          <mxGeometry x="322" y="480" width="160" height="78" as="geometry" />
        </mxCell>
        <mxCell id="gaYBmX7o_NXPl3pp05XP-30" value="-isPlusfee:boolean&lt;div&gt;-paymentType:String&lt;br&gt;&lt;div&gt;&lt;br&gt;&lt;/div&gt;&lt;/div&gt;" style="text;strokeColor=none;fillColor=none;align=left;verticalAlign=top;spacingLeft=4;spacingRight=4;overflow=hidden;rotatable=0;points=[[0,0.5],[1,0.5]];portConstraint=eastwest;whiteSpace=wrap;html=1;" vertex="1" parent="gaYBmX7o_NXPl3pp05XP-29">
          <mxGeometry y="26" width="160" height="44" as="geometry" />
        </mxCell>
        <mxCell id="gaYBmX7o_NXPl3pp05XP-31" value="" style="line;strokeWidth=1;fillColor=none;align=left;verticalAlign=middle;spacingTop=-1;spacingLeft=3;spacingRight=3;rotatable=0;labelPosition=right;points=[];portConstraint=eastwest;strokeColor=inherit;" vertex="1" parent="gaYBmX7o_NXPl3pp05XP-29">
          <mxGeometry y="70" width="160" height="8" as="geometry" />
        </mxCell>
        <mxCell id="gaYBmX7o_NXPl3pp05XP-33" value="Kreditkarte" style="swimlane;fontStyle=1;align=center;verticalAlign=top;childLayout=stackLayout;horizontal=1;startSize=26;horizontalStack=0;resizeParent=1;resizeParentMax=0;resizeLast=0;collapsible=1;marginBottom=0;whiteSpace=wrap;html=1;" vertex="1" parent="1">
          <mxGeometry x="322" y="585" width="160" height="78" as="geometry" />
        </mxCell>
        <mxCell id="gaYBmX7o_NXPl3pp05XP-34" value="-isPlusfee:boolean&lt;div&gt;-paymentType:String&lt;br&gt;&lt;div&gt;&lt;br&gt;&lt;/div&gt;&lt;/div&gt;" style="text;strokeColor=none;fillColor=none;align=left;verticalAlign=top;spacingLeft=4;spacingRight=4;overflow=hidden;rotatable=0;points=[[0,0.5],[1,0.5]];portConstraint=eastwest;whiteSpace=wrap;html=1;" vertex="1" parent="gaYBmX7o_NXPl3pp05XP-33">
          <mxGeometry y="26" width="160" height="44" as="geometry" />
        </mxCell>
        <mxCell id="gaYBmX7o_NXPl3pp05XP-35" value="" style="line;strokeWidth=1;fillColor=none;align=left;verticalAlign=middle;spacingTop=-1;spacingLeft=3;spacingRight=3;rotatable=0;labelPosition=right;points=[];portConstraint=eastwest;strokeColor=inherit;" vertex="1" parent="gaYBmX7o_NXPl3pp05XP-33">
          <mxGeometry y="70" width="160" height="8" as="geometry" />
        </mxCell>
        <mxCell id="gaYBmX7o_NXPl3pp05XP-44" value="Uses" style="text;strokeColor=none;align=center;fillColor=none;html=1;verticalAlign=middle;whiteSpace=wrap;rounded=0;" vertex="1" parent="1">
          <mxGeometry x="543" y="128" width="60" height="30" as="geometry" />
        </mxCell>
        <mxCell id="gaYBmX7o_NXPl3pp05XP-45" value="Uses" style="text;strokeColor=none;align=center;fillColor=none;html=1;verticalAlign=middle;whiteSpace=wrap;rounded=0;" vertex="1" parent="1">
          <mxGeometry x="510" y="400" width="60" height="30" as="geometry" />
        </mxCell>
        <mxCell id="gaYBmX7o_NXPl3pp05XP-46" value="" style="endArrow=block;dashed=1;endFill=0;endSize=12;html=1;rounded=0;exitX=1;exitY=0.5;exitDx=0;exitDy=0;entryX=0.028;entryY=0.016;entryDx=0;entryDy=0;entryPerimeter=0;" edge="1" parent="1" source="gaYBmX7o_NXPl3pp05XP-26" target="gaYBmX7o_NXPl3pp05XP-6">
          <mxGeometry width="160" relative="1" as="geometry">
            <mxPoint x="420" y="400" as="sourcePoint" />
            <mxPoint x="580" y="400" as="targetPoint" />
          </mxGeometry>
        </mxCell>
        <mxCell id="gaYBmX7o_NXPl3pp05XP-47" value="" style="endArrow=block;dashed=1;endFill=0;endSize=12;html=1;rounded=0;exitX=1;exitY=0.25;exitDx=0;exitDy=0;entryX=0;entryY=0.5;entryDx=0;entryDy=0;" edge="1" parent="1" source="gaYBmX7o_NXPl3pp05XP-29" target="gaYBmX7o_NXPl3pp05XP-6">
          <mxGeometry width="160" relative="1" as="geometry">
            <mxPoint x="420" y="400" as="sourcePoint" />
            <mxPoint x="580" y="400" as="targetPoint" />
          </mxGeometry>
        </mxCell>
        <mxCell id="gaYBmX7o_NXPl3pp05XP-48" value="" style="endArrow=block;dashed=1;endFill=0;endSize=12;html=1;rounded=0;exitX=1;exitY=0.5;exitDx=0;exitDy=0;entryX=0;entryY=0.5;entryDx=0;entryDy=0;" edge="1" parent="1" source="gaYBmX7o_NXPl3pp05XP-34" target="gaYBmX7o_NXPl3pp05XP-7">
          <mxGeometry width="160" relative="1" as="geometry">
            <mxPoint x="420" y="400" as="sourcePoint" />
            <mxPoint x="580" y="400" as="targetPoint" />
          </mxGeometry>
        </mxCell>
        <mxCell id="gaYBmX7o_NXPl3pp05XP-49" value="" style="endArrow=block;dashed=1;endFill=0;endSize=12;html=1;rounded=0;exitX=1;exitY=0.5;exitDx=0;exitDy=0;" edge="1" parent="1">
          <mxGeometry width="160" relative="1" as="geometry">
            <mxPoint x="513" y="91" as="sourcePoint" />
            <mxPoint x="563" y="168" as="targetPoint" />
          </mxGeometry>
        </mxCell>
        <mxCell id="gaYBmX7o_NXPl3pp05XP-50" value="" style="endArrow=block;dashed=1;endFill=0;endSize=12;html=1;rounded=0;exitX=1;exitY=0.5;exitDx=0;exitDy=0;" edge="1" parent="1" source="gaYBmX7o_NXPl3pp05XP-21" target="gaYBmX7o_NXPl3pp05XP-11">
          <mxGeometry width="160" relative="1" as="geometry">
            <mxPoint x="513" y="211" as="sourcePoint" />
            <mxPoint x="823" y="418" as="targetPoint" />
          </mxGeometry>
        </mxCell>
        <mxCell id="gaYBmX7o_NXPl3pp05XP-52" value="" style="endArrow=block;dashed=1;endFill=0;endSize=12;html=1;rounded=0;exitX=1;exitY=0.25;exitDx=0;exitDy=0;entryX=0.116;entryY=1.099;entryDx=0;entryDy=0;entryPerimeter=0;" edge="1" parent="1" source="gaYBmX7o_NXPl3pp05XP-17" target="gaYBmX7o_NXPl3pp05XP-11">
          <mxGeometry width="160" relative="1" as="geometry">
            <mxPoint x="515" y="312.144" as="sourcePoint" />
            <mxPoint x="823" y="418" as="targetPoint" />
          </mxGeometry>
        </mxCell>
        <mxCell id="gaYBmX7o_NXPl3pp05XP-53" value="(Abstarct Class)Order" style="swimlane;fontStyle=1;align=center;verticalAlign=top;childLayout=stackLayout;horizontal=1;startSize=26;horizontalStack=0;resizeParent=1;resizeParentMax=0;resizeLast=0;collapsible=1;marginBottom=0;whiteSpace=wrap;html=1;" vertex="1" parent="1">
          <mxGeometry x="90" y="116" width="160" height="98" as="geometry" />
        </mxCell>
        <mxCell id="gaYBmX7o_NXPl3pp05XP-54" value="-quantity:int&lt;div&gt;-price:double&lt;/div&gt;&lt;div&gt;-name:String&lt;/div&gt;&lt;div&gt;&lt;br&gt;&lt;/div&gt;&lt;div&gt;&lt;div&gt;&lt;br&gt;&lt;div&gt;&lt;br&gt;&lt;/div&gt;&lt;/div&gt;&lt;/div&gt;" style="text;strokeColor=none;fillColor=none;align=left;verticalAlign=top;spacingLeft=4;spacingRight=4;overflow=hidden;rotatable=0;points=[[0,0.5],[1,0.5]];portConstraint=eastwest;whiteSpace=wrap;html=1;" vertex="1" parent="gaYBmX7o_NXPl3pp05XP-53">
          <mxGeometry y="26" width="160" height="64" as="geometry" />
        </mxCell>
        <mxCell id="gaYBmX7o_NXPl3pp05XP-55" value="" style="line;strokeWidth=1;fillColor=none;align=left;verticalAlign=middle;spacingTop=-1;spacingLeft=3;spacingRight=3;rotatable=0;labelPosition=right;points=[];portConstraint=eastwest;strokeColor=inherit;" vertex="1" parent="gaYBmX7o_NXPl3pp05XP-53">
          <mxGeometry y="90" width="160" height="8" as="geometry" />
        </mxCell>
        <mxCell id="gaYBmX7o_NXPl3pp05XP-59" value="VerifyOrder" style="swimlane;fontStyle=1;align=center;verticalAlign=top;childLayout=stackLayout;horizontal=1;startSize=26;horizontalStack=0;resizeParent=1;resizeParentMax=0;resizeLast=0;collapsible=1;marginBottom=0;whiteSpace=wrap;html=1;" vertex="1" parent="1">
          <mxGeometry x="82" y="399" width="170" height="138" as="geometry" />
        </mxCell>
        <mxCell id="gaYBmX7o_NXPl3pp05XP-60" value="&lt;div&gt;-Arraylist&amp;lt;Order&amp;gt;&lt;/div&gt;&lt;div&gt;-calcOrder():double&lt;/div&gt;&lt;div&gt;-verifyOrder():boolean&lt;/div&gt;&lt;div&gt;-navigateTopayment(String paymentChoice):void&lt;br&gt;&lt;div&gt;&lt;br&gt;&lt;div&gt;&lt;br&gt;&lt;/div&gt;&lt;/div&gt;&lt;/div&gt;" style="text;strokeColor=none;fillColor=none;align=left;verticalAlign=top;spacingLeft=4;spacingRight=4;overflow=hidden;rotatable=0;points=[[0,0.5],[1,0.5]];portConstraint=eastwest;whiteSpace=wrap;html=1;" vertex="1" parent="gaYBmX7o_NXPl3pp05XP-59">
          <mxGeometry y="26" width="170" height="104" as="geometry" />
        </mxCell>
        <mxCell id="gaYBmX7o_NXPl3pp05XP-61" value="" style="line;strokeWidth=1;fillColor=none;align=left;verticalAlign=middle;spacingTop=-1;spacingLeft=3;spacingRight=3;rotatable=0;labelPosition=right;points=[];portConstraint=eastwest;strokeColor=inherit;" vertex="1" parent="gaYBmX7o_NXPl3pp05XP-59">
          <mxGeometry y="130" width="170" height="8" as="geometry" />
        </mxCell>
        <mxCell id="gaYBmX7o_NXPl3pp05XP-62" value="" style="endArrow=block;dashed=1;endFill=0;endSize=12;html=1;rounded=0;exitX=0;exitY=0.75;exitDx=0;exitDy=0;entryX=1.018;entryY=-0.02;entryDx=0;entryDy=0;entryPerimeter=0;" edge="1" parent="1" source="gaYBmX7o_NXPl3pp05XP-13" target="gaYBmX7o_NXPl3pp05XP-54">
          <mxGeometry width="160" relative="1" as="geometry">
            <mxPoint x="330" y="70" as="sourcePoint" />
            <mxPoint x="380" y="147" as="targetPoint" />
          </mxGeometry>
        </mxCell>
        <mxCell id="gaYBmX7o_NXPl3pp05XP-63" value="" style="endArrow=block;dashed=1;endFill=0;endSize=12;html=1;rounded=0;exitX=0;exitY=0.5;exitDx=0;exitDy=0;entryX=1;entryY=0.5;entryDx=0;entryDy=0;" edge="1" parent="1" source="gaYBmX7o_NXPl3pp05XP-21" target="gaYBmX7o_NXPl3pp05XP-54">
          <mxGeometry width="160" relative="1" as="geometry">
            <mxPoint x="290" y="240" as="sourcePoint" />
            <mxPoint x="340" y="317" as="targetPoint" />
          </mxGeometry>
        </mxCell>
        <mxCell id="gaYBmX7o_NXPl3pp05XP-64" value="" style="endArrow=block;dashed=1;endFill=0;endSize=12;html=1;rounded=0;exitX=0;exitY=0.5;exitDx=0;exitDy=0;entryX=0.976;entryY=0.813;entryDx=0;entryDy=0;entryPerimeter=0;" edge="1" parent="1" source="gaYBmX7o_NXPl3pp05XP-17" target="gaYBmX7o_NXPl3pp05XP-54">
          <mxGeometry width="160" relative="1" as="geometry">
            <mxPoint x="250" y="240" as="sourcePoint" />
            <mxPoint x="300" y="317" as="targetPoint" />
          </mxGeometry>
        </mxCell>
        <mxCell id="gaYBmX7o_NXPl3pp05XP-66" value="" style="endArrow=classic;html=1;rounded=0;exitX=0.5;exitY=0;exitDx=0;exitDy=0;entryX=0.5;entryY=1;entryDx=0;entryDy=0;" edge="1" parent="1" source="gaYBmX7o_NXPl3pp05XP-59" target="gaYBmX7o_NXPl3pp05XP-53">
          <mxGeometry width="50" height="50" relative="1" as="geometry">
            <mxPoint x="390" y="380" as="sourcePoint" />
            <mxPoint x="440" y="330" as="targetPoint" />
          </mxGeometry>
        </mxCell>
        <mxCell id="gaYBmX7o_NXPl3pp05XP-67" value="Has" style="text;html=1;align=center;verticalAlign=middle;whiteSpace=wrap;rounded=0;" vertex="1" parent="1">
          <mxGeometry x="100" y="290" width="60" height="30" as="geometry" />
        </mxCell>
        <mxCell id="gaYBmX7o_NXPl3pp05XP-68" value="" style="endArrow=open;endFill=1;endSize=12;html=1;rounded=0;exitX=1.004;exitY=0.427;exitDx=0;exitDy=0;exitPerimeter=0;entryX=-0.013;entryY=0.998;entryDx=0;entryDy=0;entryPerimeter=0;" edge="1" parent="1" source="gaYBmX7o_NXPl3pp05XP-60" target="gaYBmX7o_NXPl3pp05XP-26">
          <mxGeometry width="160" relative="1" as="geometry">
            <mxPoint x="320" y="490" as="sourcePoint" />
            <mxPoint x="480" y="490" as="targetPoint" />
          </mxGeometry>
        </mxCell>
        <mxCell id="gaYBmX7o_NXPl3pp05XP-69" value="" style="endArrow=open;endFill=1;endSize=12;html=1;rounded=0;exitX=1.018;exitY=0.703;exitDx=0;exitDy=0;exitPerimeter=0;" edge="1" parent="1" source="gaYBmX7o_NXPl3pp05XP-60">
          <mxGeometry width="160" relative="1" as="geometry">
            <mxPoint x="320" y="490" as="sourcePoint" />
            <mxPoint x="320" y="510" as="targetPoint" />
          </mxGeometry>
        </mxCell>
        <mxCell id="gaYBmX7o_NXPl3pp05XP-70" value="" style="endArrow=open;endFill=1;endSize=12;html=1;rounded=0;exitX=0.98;exitY=0.948;exitDx=0;exitDy=0;exitPerimeter=0;" edge="1" parent="1" source="gaYBmX7o_NXPl3pp05XP-60">
          <mxGeometry width="160" relative="1" as="geometry">
            <mxPoint x="280" y="500" as="sourcePoint" />
            <mxPoint x="320" y="620" as="targetPoint" />
          </mxGeometry>
        </mxCell>
      </root>
    </mxGraphModel>
  </diagram>
</mxfile>
